<svg xmlns="http://www.w3.org/2000/svg" viewBox="0 0 48 48" width="48px" height="48px"><path fill="#4CAF50" d="M41,10H25v28h16c0.553,0,1-0.447,1-1V11C42,10.447,41.553,10,41,10z"/><path fill="#FFF" d="M32,15H25v2h7V15z M37,15h-3v2h3V15z M32,19H25v2h7V19z M37,19h-3v2h3V19z M32,23H25v2h7V23z M37,23h-3v2h3V23z M32,27H25v2h7V27z M37,27h-3v2h3V27z M32,31H25v2h7V31z M37,31h-3v2h3V31z"/><path fill="#2E7D32" d="M27,42L6,38L6,10l21-4V42z"/><path fill="#FFF" d="M19.129,31l-2.411-4.561c-0.092-0.171-0.186-0.483-0.284-0.938h-0.037c-0.046,0.215-0.154,0.541-0.324,0.979L13.652,31H9.895l4.462-7.001L10.274,17h3.837l2.001,4.196c0.156,0.331,0.296,0.725,0.42,1.179h0.04c0.078-0.271,0.224-0.68,0.439-1.22L19.237,17h3.515l-4.199,6.939l4.316,7.059h-3.74V31z"/></svg>
